<svg id="Layer_1" data-name="Layer 1" xmlns="http://www.w3.org/2000/svg" viewBox="0 0 1286.66 162.73">
  <title>Logo</title>
  <path d="M107.2,32c22.83,0,39.33,7.23,54.7,21a4.2,4.2,0,0,1,.23,6.33L148.33,73.62c-1.58,1.81-3.84,1.81-5.65,0a53.47,53.47,0,0,0-34.81-13.33c-28.93,0-50.4,24.18-50.4,52.66,0,28.25,21.7,52.21,50.63,52.21,13.56,0,25.09-5.2,34.58-12.88a4.16,4.16,0,0,1,5.65,0l14,14.46c1.81,1.58,1.36,4.52-.23,6.1-15.37,14.92-34.81,21.92-54.92,21.92-45.2,0-81.59-35.94-81.59-81.14A81.41,81.41,0,0,1,107.2,32Z" transform="translate(-25.6 -32.03)"/>
  <path d="M171.15,186.62,241.44,34.51A4.06,4.06,0,0,1,245.29,32h2.26a3.84,3.84,0,0,1,3.84,2.49L321,186.62a4,4,0,0,1-3.84,5.88H297.49c-3.39,0-5-1.36-6.55-4.52l-11.07-24.41H212.29L201.21,188a6.81,6.81,0,0,1-6.55,4.52H175A4,4,0,0,1,171.15,186.62Zm97.64-48.14-22.6-49.72h-.68l-22.15,49.72Z" transform="translate(-25.6 -32.03)"/>
  <path d="M341.56,38.58a4.29,4.29,0,0,1,4.29-4.29H410.5c27.12,0,49.27,21.7,49.27,48.59,0,20.79-13.79,37.74-33.45,45.65l31,57.41c1.58,2.94,0,6.55-3.84,6.55H429.71a3.87,3.87,0,0,1-3.62-2L396,130.57H370.94V188.2a4.45,4.45,0,0,1-4.29,4.29H345.86a4.29,4.29,0,0,1-4.29-4.29ZM408,106.39c12,0,22.38-10.4,22.38-23.05,0-12-10.4-21.92-22.37-21.92H371.17v45Z" transform="translate(-25.6 -32.03)"/>
  <path d="M561.92,32a81.36,81.36,0,1,1-81.14,81.59C480.78,68.42,516.72,32,561.92,32Zm0,133.35c28.48,0,52-23.28,52-51.76s-23.51-52.21-52-52.21-51.76,23.73-51.76,52.21A51.9,51.9,0,0,0,561.92,165.38Z" transform="translate(-25.6 -32.03)" style="fill: #009e0f"/>
  <path d="M689.39,35.42A3.81,3.81,0,0,1,693.45,32h3.62a4.12,4.12,0,0,1,3.84,2.26L750.64,141h.68L801,34.29A3.9,3.9,0,0,1,804.88,32h3.62a3.81,3.81,0,0,1,4.07,3.39L839.23,187.3c.68,3.16-1.13,5.2-4.07,5.2H814.6a4.9,4.9,0,0,1-4.29-3.39L797,103.45h-.68l-39.55,88.82a3.84,3.84,0,0,1-3.84,2.49h-4.07a4.06,4.06,0,0,1-3.84-2.49l-40-88.82h-.68l-13.11,85.66a4.38,4.38,0,0,1-4.07,3.39H666.78c-2.94,0-4.75-2-4.29-5.2Z" transform="translate(-25.6 -32.03)"/>
  <path d="M940,32a81.36,81.36,0,1,1-81.14,81.59C858.89,68.42,894.83,32,940,32Zm0,133.35c28.48,0,52-23.28,52-51.76s-23.51-52.21-52-52.21-51.76,23.73-51.76,52.21A51.9,51.9,0,0,0,940,165.38Z" transform="translate(-25.6 -32.03)" style="fill: #fccc00"/>
  <path d="M1070.66,61.41h-34.58a4.29,4.29,0,0,1-4.29-4.29V38.58a4.29,4.29,0,0,1,4.29-4.29h98.77a4.29,4.29,0,0,1,4.29,4.29V57.12a4.29,4.29,0,0,1-4.29,4.29h-34.58V188.2a4.45,4.45,0,0,1-4.29,4.29h-21a4.45,4.45,0,0,1-4.29-4.29Z" transform="translate(-25.6 -32.03)"/>
  <path d="M1230.9,32a81.36,81.36,0,1,1-81.14,81.59C1149.77,68.42,1185.7,32,1230.9,32Zm0,133.35c28.48,0,52-23.28,52-51.76s-23.51-52.21-52-52.21-51.76,23.73-51.76,52.21A51.9,51.9,0,0,0,1230.9,165.38Z" transform="translate(-25.6 -32.03)" style="fill: red"/>
</svg>
